<svg width="30" height="30" viewBox="0 0 30 30" fill="none" xmlns="http://www.w3.org/2000/svg">
<g clip-path="url(#clip0_16218_2305)">
<path d="M2.98926 29.4469C2.98926 29.4276 6.55242 26.403 14.9548 26.403C23.1164 26.403 26.9203 29.4276 26.9203 29.4469H2.98926Z" fill="#F6CC90"/>
<path d="M14.9544 26.403C14.4332 26.403 13.9306 26.4147 13.4463 26.4366C20.5964 26.7668 23.9432 29.4288 23.9432 29.4469H26.92C26.92 29.4275 23.116 26.403 14.9544 26.403Z" fill="#F0C17F"/>
<path d="M20.388 5.34312C19.4144 8.1671 16.7909 8.65308 16.7909 8.65308C16.7909 8.65308 15.0526 6.57172 16.0008 3.8211C16.9996 0.92375 19.6231 0.437775 19.6231 0.437775C19.6231 0.437775 21.3742 2.48248 20.388 5.34312Z" fill="#C5E866"/>
<path d="M19.6237 0.437775C19.6237 0.437775 18.9303 0.566302 18.1208 1.08473C18.5656 1.90516 19.117 3.44422 18.4624 5.34306C17.9914 6.70918 17.1344 7.52809 16.375 8.00957C16.5978 8.42083 16.7915 8.65296 16.7915 8.65296C16.7915 8.65296 19.415 8.16705 20.3885 5.343C21.3747 2.48248 19.6237 0.437775 19.6237 0.437775Z" fill="#B2D94B"/>
<path d="M17.7727 18.6193C16.1733 18.8466 14.9959 18.5199 14.9959 18.5199C14.9959 18.5199 13.9776 14.4338 17.1598 11.2415C20.5117 7.87899 24.5001 8.98565 24.5001 8.98565C24.5001 8.98565 25.375 12.3208 23.0566 15.4201" fill="#9CC042"/>
<path d="M24.4991 8.98565C24.4991 8.98565 23.4296 8.68908 21.933 8.86979C22.3372 8.92045 22.5729 8.98565 22.5729 8.98565C22.5729 8.98565 23.4478 12.3208 21.1294 15.4201L15.8455 18.6193C15.787 18.6276 15.7292 18.6349 15.6719 18.6418C16.1705 18.7033 16.9095 18.7418 17.7716 18.6193L23.0555 15.4201C25.3739 12.3208 24.4991 8.98565 24.4991 8.98565Z" fill="#85AA18"/>
<path d="M11.1821 16.4764C14.0209 18.7137 13.5365 21.9207 13.5365 21.9207C13.5365 21.9207 10.4714 23.0938 7.70636 20.9145C4.79383 18.619 5.27823 15.412 5.27823 15.412C5.27823 15.412 8.3065 14.2099 11.1821 16.4764Z" fill="#C5E866"/>
<path d="M7.92573 11.8618C10.7839 15.5035 14.8747 14.8773 14.8747 14.8773C14.8747 14.8773 16.3671 10.9405 13.5831 7.39338C10.6507 3.65715 6.55996 4.28333 6.55996 4.28333C6.55996 4.28333 5.03042 8.17289 7.92573 11.8618Z" fill="#9CC042"/>
<path d="M22.3173 20.2703C19.8647 21.966 17.4646 20.7976 17.4646 20.7976C17.4646 20.7976 17.2941 18.0876 19.683 16.4359C22.1993 14.6962 24.5994 15.8646 24.5994 15.8646C24.5994 15.8646 24.8018 18.5526 22.3173 20.2703Z" fill="#C5E866"/>
<path d="M24.5998 15.8646C24.5998 15.8646 23.3487 15.2558 21.7061 15.5718C22.3054 15.6854 22.6737 15.8646 22.6737 15.8646C22.6737 15.8646 22.876 18.5525 20.3915 20.2703C19.7265 20.73 19.0656 20.9789 18.4551 21.098C19.3812 21.2738 20.8398 21.2921 22.3177 20.2703C24.8022 18.5525 24.5998 15.8646 24.5998 15.8646Z" fill="#B2D94B"/>
<path d="M26.9925 28.9528C26.1267 28.3426 25.1397 27.8882 24.1547 27.5091C22.3774 26.8252 19.4199 26.014 15.3237 25.9675C15.3902 25.401 15.5478 24.5873 15.9169 23.6813C16.2835 22.7812 16.7799 21.9694 17.4017 21.2481C17.6937 21.3684 18.4453 21.6318 19.4276 21.6318C20.3372 21.6318 21.4443 21.4056 22.5657 20.6303C25.2259 18.7911 25.0444 15.9517 25.0354 15.8318C25.0237 15.6765 24.9304 15.5392 24.7905 15.471C24.7505 15.4516 24.372 15.2725 23.7737 15.151C24.2616 14.3853 24.6194 13.5542 24.84 12.6722C24.9768 12.1243 24.1276 11.9121 23.9905 12.4598C23.758 13.39 23.3545 14.2573 22.7911 15.0404C21.8431 15.018 20.6528 15.2328 19.4335 16.0759C18.5246 16.7042 17.9571 17.4689 17.603 18.1997C16.8348 18.2975 16.1745 18.2616 15.7272 18.2066C16.6166 17.0069 18.9349 14.0992 21.5449 12.5806C22.033 12.2966 21.5927 11.5397 21.1047 11.8238C18.5648 13.3016 16.354 15.9323 15.2885 17.329C15.227 15.9662 15.4633 13.5629 17.4693 11.5505C18.7767 10.239 20.3329 9.47905 22.0944 9.29192C23.0164 9.19398 23.7582 9.28696 24.1275 9.3535C24.1664 9.58195 24.2142 9.95084 24.2224 10.4139C24.2322 10.9732 25.1077 10.9665 25.0978 10.3986C25.0819 9.48996 24.9294 8.89921 24.923 8.87452C24.8834 8.72376 24.7667 8.60545 24.6165 8.56377C24.5727 8.55163 23.5232 8.26691 22.0422 8.41703C20.6792 8.55531 18.672 9.10391 16.8492 10.9324C16.6972 11.0849 16.5549 11.2395 16.4208 11.3954C16.6667 10.6384 16.9351 9.81968 17.2094 8.99628C18.0024 8.75434 19.9606 7.92534 20.8017 5.48571C21.8574 2.42323 20.0336 0.244219 19.9554 0.152931C19.8539 0.0342674 19.6968 -0.021241 19.5432 0.00724279C19.4258 0.0290142 16.6565 0.575343 15.5867 3.67833C14.6985 6.2546 15.9643 8.26796 16.3511 8.79882C16.0958 9.56555 15.8466 10.3257 15.6163 11.0343C15.4391 9.84998 14.977 8.4604 13.9274 7.12312C12.333 5.09149 10.4044 4.30888 9.06727 4.01004C7.61436 3.68533 6.53875 3.84369 6.49363 3.85063C6.33948 3.87421 6.20955 3.97805 6.15247 4.12315C6.14015 4.15444 5.85006 4.90237 5.75107 6.04937C5.70262 6.61199 6.57482 6.68711 6.62338 6.12467C6.67913 5.47853 6.80304 4.97423 6.88593 4.69271C7.26112 4.67048 8.00847 4.66616 8.91178 4.87255C10.639 5.26718 12.0948 6.20627 13.2387 7.66367C14.3224 9.04449 14.8596 10.6464 14.8356 12.4248C14.8277 13.0043 14.7583 13.5097 14.6816 13.8979C12.9498 10.6727 10.4978 8.19482 10.3903 8.08696C9.99177 7.68708 9.37178 8.30502 9.7702 8.70496C9.79606 8.73094 12.3237 11.287 13.9982 14.4778C13.6069 14.4689 13.0994 14.4257 12.5301 14.2998C10.8161 13.9205 9.38275 13.0093 8.26996 11.5915C7.49518 10.6043 6.98217 9.50864 6.7452 8.33508C6.63348 7.78163 5.77517 7.95487 5.88701 8.50838C6.15124 9.81712 6.72127 11.0363 7.58127 12.1321C9.13825 14.1159 11.0499 14.8753 12.3793 15.163C13.0418 15.3064 13.7245 15.3744 14.4024 15.3523V16.9288V16.955V22.7238C14.2703 22.439 14.1276 22.1694 13.9774 21.9142C14.0368 21.396 14.2527 18.3399 11.4519 16.1325C8.41302 13.7374 5.24869 14.9521 5.11543 15.0051C4.97074 15.0625 4.86737 15.1926 4.84414 15.3466C4.82283 15.4878 4.35705 18.8331 7.43412 21.2583C8.86333 22.3847 10.3568 22.6787 11.5267 22.6787C12.2858 22.6787 12.9084 22.5549 13.2889 22.4544C13.8984 23.5188 14.2587 24.6938 14.367 25.9708C12.1014 26.0091 9.98786 26.2691 8.07717 26.7466C7.52932 26.8835 7.74155 27.7328 8.28945 27.596C10.1414 27.1332 12.1957 26.8817 14.4024 26.8458V27.852C14.4024 28.4166 15.2779 28.4166 15.2779 27.852V26.8433C20.441 26.8946 23.7406 28.1587 25.3815 29.0092H4.47916C4.90461 28.7829 5.4493 28.5265 6.12095 28.2711C6.64872 28.0703 6.33744 27.2518 5.80973 27.4527C4.71935 27.8674 3.94293 28.2882 3.48351 28.5681C2.55078 29.1364 2.55078 29.2735 2.55078 29.447C2.55078 29.6887 2.74672 29.8847 2.98854 29.8847H26.9196C27.585 29.8847 27.3232 29.1859 26.9925 28.9528ZM19.9314 16.796C21.7785 15.519 23.5327 15.94 24.1636 16.161C24.139 16.8371 23.8944 18.6473 22.0678 19.9102C20.4115 21.0554 18.8003 20.7806 18.0662 20.5564C18.9292 19.7489 19.9787 19.0783 21.2104 18.5506C21.7294 18.3282 21.3848 17.5235 20.8657 17.7458C19.7544 18.2219 18.8383 18.7889 18.0821 19.3963C18.3097 18.5839 18.8152 17.5677 19.9314 16.796ZM16.6292 19.1376C16.8253 19.1376 17.0342 19.1306 17.2533 19.1146C17.1092 19.6149 17.0535 20.0548 17.0335 20.3638C16.2045 21.2438 15.649 22.1517 15.2779 22.9561V19.0266C15.5849 19.0795 16.0528 19.1376 16.6292 19.1376ZM16.4145 3.96375C17.1475 1.83744 18.8081 1.13276 19.4478 0.935127C19.8279 1.49529 20.6987 3.09815 19.9739 5.20046C19.4313 6.7746 18.3422 7.55143 17.5711 7.91897C18.1395 6.2389 18.7012 4.64725 19.1087 3.64798C19.322 3.12511 18.5112 2.79445 18.298 3.31738C17.8729 4.3599 17.2936 6.00221 16.7124 7.7214C16.3143 6.95963 15.852 5.59532 16.4145 3.96375ZM7.97613 20.5706C6.85972 19.6908 6.13904 18.5709 5.83407 17.2421C5.68453 16.5905 5.67647 16.0439 5.68937 15.7388C6.43555 15.5297 8.72377 15.0971 10.91 16.8202C11.9954 17.6757 12.6943 18.778 12.9874 20.0962C13.03 20.2879 13.0603 20.4703 13.0817 20.6405C12.7902 20.2891 12.4935 19.9794 12.2078 19.7115C10.6976 18.2944 9.19843 17.701 9.13533 17.6764C8.60914 17.4714 8.29144 18.2874 8.81763 18.4923C8.83146 18.4977 10.2207 19.0476 11.6088 20.3499C12.0522 20.7661 12.4428 21.2071 12.7813 21.6719C11.8114 21.8696 9.8169 22.0214 7.97613 20.5706Z" fill="#060606"/>
</g>
<defs>
<clipPath id="clip0_16218_2305">
<rect width="29.8847" height="29.8847" fill="white"/>
</clipPath>
</defs>
</svg>
